<svg width="391" height="190" viewBox="0 0 391 190" fill="none" xmlns="http://www.w3.org/2000/svg">
<path d="M103.768 78.624C104.472 78.624 105.304 78.656 106.264 78.72C107.224 78.784 107.992 78.88 108.568 79.008L107.512 92.448C107.064 92.32 106.392 92.224 105.496 92.16C104.664 92.032 103.928 91.968 103.288 91.968C101.432 91.968 99.64 92.224 97.912 92.736C96.184 93.184 94.616 93.92 93.208 94.944C91.864 95.968 90.776 97.344 89.944 99.072C89.176 100.736 88.792 102.816 88.792 105.312V132H74.488V79.584H85.336L87.448 88.416H88.12C89.144 86.624 90.424 84.992 91.96 83.52C93.496 82.048 95.256 80.864 97.24 79.968C99.288 79.072 101.464 78.624 103.768 78.624ZM137.807 78.624C142.671 78.624 146.831 79.552 150.287 81.408C153.807 83.264 156.527 85.952 158.447 89.472C160.367 92.992 161.327 97.312 161.327 102.432V109.344H127.535C127.663 113.376 128.847 116.544 131.087 118.848C133.391 121.152 136.559 122.304 140.591 122.304C143.983 122.304 147.055 121.984 149.807 121.344C152.559 120.64 155.407 119.584 158.351 118.176V129.216C155.791 130.496 153.071 131.424 150.191 132C147.375 132.64 143.951 132.96 139.919 132.96C134.671 132.96 130.031 132 125.999 130.08C121.967 128.096 118.799 125.12 116.495 121.152C114.191 117.184 113.039 112.192 113.039 106.176C113.039 100.032 114.063 94.944 116.111 90.912C118.223 86.816 121.135 83.744 124.847 81.696C128.559 79.648 132.879 78.624 137.807 78.624ZM137.903 88.8C135.151 88.8 132.847 89.696 130.991 91.488C129.199 93.28 128.143 96.064 127.823 99.84H147.887C147.887 97.728 147.503 95.84 146.735 94.176C146.031 92.512 144.943 91.2 143.471 90.24C141.999 89.28 140.143 88.8 137.903 88.8ZM204.414 133.056C204.414 131.776 204.446 130.464 204.51 129.12C204.638 127.776 204.798 126.464 204.99 125.184H204.414C203.07 127.36 201.214 129.216 198.846 130.752C196.478 132.224 193.374 132.96 189.534 132.96C183.646 132.96 178.878 130.688 175.23 126.144C171.582 121.536 169.758 114.784 169.758 105.888C169.758 99.936 170.59 94.944 172.254 90.912C173.982 86.816 176.35 83.744 179.358 81.696C182.366 79.648 185.854 78.624 189.822 78.624C193.662 78.624 196.766 79.36 199.134 80.832C201.566 82.304 203.518 84.128 204.99 86.304H205.374L206.622 79.584H218.718V155.04H204.414V133.056ZM194.622 121.728C197.246 121.728 199.326 121.216 200.862 120.192C202.398 119.168 203.518 117.632 204.222 115.584C204.926 113.472 205.31 110.848 205.374 107.712V105.984C205.374 100.864 204.574 96.96 202.974 94.272C201.438 91.584 198.59 90.24 194.43 90.24C191.038 90.24 188.51 91.616 186.846 94.368C185.182 97.056 184.35 100.96 184.35 106.08C184.35 111.328 185.182 115.264 186.846 117.888C188.51 120.448 191.102 121.728 194.622 121.728ZM281.772 79.584V132H270.828L268.908 125.28H268.14C267.052 127.072 265.644 128.544 263.916 129.696C262.252 130.784 260.396 131.584 258.348 132.096C256.3 132.672 254.188 132.96 252.012 132.96C248.3 132.96 245.036 132.288 242.22 130.944C239.404 129.6 237.228 127.52 235.692 124.704C234.156 121.888 233.388 118.24 233.388 113.76V79.584H247.692V110.208C247.692 113.92 248.364 116.736 249.708 118.656C251.052 120.576 253.196 121.536 256.14 121.536C259.084 121.536 261.356 120.864 262.956 119.52C264.62 118.176 265.772 116.224 266.412 113.664C267.116 111.104 267.468 107.968 267.468 104.256V79.584H281.772ZM326.049 78.624C326.753 78.624 327.585 78.656 328.545 78.72C329.505 78.784 330.273 78.88 330.849 79.008L329.793 92.448C329.345 92.32 328.673 92.224 327.777 92.16C326.945 92.032 326.209 91.968 325.569 91.968C323.713 91.968 321.921 92.224 320.193 92.736C318.465 93.184 316.897 93.92 315.489 94.944C314.145 95.968 313.057 97.344 312.225 99.072C311.457 100.736 311.073 102.816 311.073 105.312V132H296.769V79.584H307.617L309.729 88.416H310.401C311.425 86.624 312.705 84.992 314.241 83.52C315.777 82.048 317.537 80.864 319.521 79.968C321.569 79.072 323.745 78.624 326.049 78.624ZM386.104 105.696C386.104 110.048 385.496 113.92 384.28 117.312C383.128 120.704 381.432 123.584 379.192 125.952C377.016 128.256 374.36 130.016 371.224 131.232C368.088 132.384 364.536 132.96 360.568 132.96C356.92 132.96 353.528 132.384 350.392 131.232C347.32 130.016 344.664 128.256 342.424 125.952C340.184 123.584 338.424 120.704 337.144 117.312C335.928 113.92 335.32 110.048 335.32 105.696C335.32 99.872 336.344 94.976 338.392 91.008C340.44 86.976 343.384 83.904 347.224 81.792C351.064 79.68 355.608 78.624 360.856 78.624C365.784 78.624 370.136 79.68 373.912 81.792C377.688 83.904 380.664 86.976 382.84 91.008C385.016 94.976 386.104 99.872 386.104 105.696ZM349.912 105.696C349.912 109.152 350.264 112.064 350.968 114.432C351.736 116.736 352.92 118.496 354.52 119.712C356.12 120.864 358.2 121.44 360.76 121.44C363.32 121.44 365.368 120.864 366.904 119.712C368.504 118.496 369.656 116.736 370.36 114.432C371.128 112.064 371.512 109.152 371.512 105.696C371.512 102.24 371.128 99.36 370.36 97.056C369.656 94.752 368.504 93.024 366.904 91.872C365.304 90.72 363.224 90.144 360.664 90.144C356.888 90.144 354.136 91.456 352.408 94.08C350.744 96.64 349.912 100.512 349.912 105.696Z" fill="white"/>
<path d="M184.578 63.3654C178.014 44.777 165.829 28.6912 149.713 17.3377C133.598 5.98409 114.349 -0.0748459 94.636 0.000697533C74.9227 0.0762409 55.7212 6.28252 39.693 17.7593C23.6648 29.236 11.6038 45.4147 5.182 64.0528C-1.23983 82.6909 -1.70449 102.865 3.85245 121.779C9.4094 140.693 20.7127 157.41 36.1955 169.613C51.6783 181.815 70.5737 188.899 90.2626 189.882C109.952 190.865 129.459 185.699 146.08 175.099L123.094 139.054C113.952 144.884 103.223 147.726 92.3944 147.185C81.5656 146.644 71.1731 142.748 62.6575 136.037C54.142 129.326 47.9252 120.131 44.8689 109.729C41.8125 99.3259 42.0681 88.23 45.6001 77.9791C49.1321 67.7281 55.7656 58.8298 64.5811 52.5176C73.3966 46.2054 83.9575 42.7919 94.7998 42.7504C105.642 42.7088 116.229 46.0413 125.092 52.2857C133.956 58.5302 140.658 67.3774 144.268 77.601L184.578 63.3654Z" fill="white"/>
</svg>
