<svg width="406" height="220" viewBox="0 0 406 220" fill="none" xmlns="http://www.w3.org/2000/svg">
<path d="M118.768 88.624C119.472 88.624 120.304 88.656 121.264 88.72C122.224 88.784 122.992 88.88 123.568 89.008L122.512 102.448C122.064 102.32 121.392 102.224 120.496 102.16C119.664 102.032 118.928 101.968 118.288 101.968C116.432 101.968 114.64 102.224 112.912 102.736C111.184 103.184 109.616 103.92 108.208 104.944C106.864 105.968 105.776 107.344 104.944 109.072C104.176 110.736 103.792 112.816 103.792 115.312V142H89.488V89.584H100.336L102.448 98.416H103.12C104.144 96.624 105.424 94.992 106.96 93.52C108.496 92.048 110.256 90.864 112.24 89.968C114.288 89.072 116.464 88.624 118.768 88.624ZM152.807 88.624C157.671 88.624 161.831 89.552 165.287 91.408C168.807 93.264 171.527 95.952 173.447 99.472C175.367 102.992 176.327 107.312 176.327 112.432V119.344H142.535C142.663 123.376 143.847 126.544 146.087 128.848C148.391 131.152 151.559 132.304 155.591 132.304C158.983 132.304 162.055 131.984 164.807 131.344C167.559 130.64 170.407 129.584 173.351 128.176V139.216C170.791 140.496 168.071 141.424 165.191 142C162.375 142.64 158.951 142.96 154.919 142.96C149.671 142.96 145.031 142 140.999 140.08C136.967 138.096 133.799 135.12 131.495 131.152C129.191 127.184 128.039 122.192 128.039 116.176C128.039 110.032 129.063 104.944 131.111 100.912C133.223 96.816 136.135 93.744 139.847 91.696C143.559 89.648 147.879 88.624 152.807 88.624ZM152.903 98.8C150.151 98.8 147.847 99.696 145.991 101.488C144.199 103.28 143.143 106.064 142.823 109.84H162.887C162.887 107.728 162.503 105.84 161.735 104.176C161.031 102.512 159.943 101.2 158.471 100.24C156.999 99.28 155.143 98.8 152.903 98.8ZM219.414 143.056C219.414 141.776 219.446 140.464 219.51 139.12C219.638 137.776 219.798 136.464 219.99 135.184H219.414C218.07 137.36 216.214 139.216 213.846 140.752C211.478 142.224 208.374 142.96 204.534 142.96C198.646 142.96 193.878 140.688 190.23 136.144C186.582 131.536 184.758 124.784 184.758 115.888C184.758 109.936 185.59 104.944 187.254 100.912C188.982 96.816 191.35 93.744 194.358 91.696C197.366 89.648 200.854 88.624 204.822 88.624C208.662 88.624 211.766 89.36 214.134 90.832C216.566 92.304 218.518 94.128 219.99 96.304H220.374L221.622 89.584H233.718V165.04H219.414V143.056ZM209.622 131.728C212.246 131.728 214.326 131.216 215.862 130.192C217.398 129.168 218.518 127.632 219.222 125.584C219.926 123.472 220.31 120.848 220.374 117.712V115.984C220.374 110.864 219.574 106.96 217.974 104.272C216.438 101.584 213.59 100.24 209.43 100.24C206.038 100.24 203.51 101.616 201.846 104.368C200.182 107.056 199.35 110.96 199.35 116.08C199.35 121.328 200.182 125.264 201.846 127.888C203.51 130.448 206.102 131.728 209.622 131.728ZM296.772 89.584V142H285.828L283.908 135.28H283.14C282.052 137.072 280.644 138.544 278.916 139.696C277.252 140.784 275.396 141.584 273.348 142.096C271.3 142.672 269.188 142.96 267.012 142.96C263.3 142.96 260.036 142.288 257.22 140.944C254.404 139.6 252.228 137.52 250.692 134.704C249.156 131.888 248.388 128.24 248.388 123.76V89.584H262.692V120.208C262.692 123.92 263.364 126.736 264.708 128.656C266.052 130.576 268.196 131.536 271.14 131.536C274.084 131.536 276.356 130.864 277.956 129.52C279.62 128.176 280.772 126.224 281.412 123.664C282.116 121.104 282.468 117.968 282.468 114.256V89.584H296.772ZM341.049 88.624C341.753 88.624 342.585 88.656 343.545 88.72C344.505 88.784 345.273 88.88 345.849 89.008L344.793 102.448C344.345 102.32 343.673 102.224 342.777 102.16C341.945 102.032 341.209 101.968 340.569 101.968C338.713 101.968 336.921 102.224 335.193 102.736C333.465 103.184 331.897 103.92 330.489 104.944C329.145 105.968 328.057 107.344 327.225 109.072C326.457 110.736 326.073 112.816 326.073 115.312V142H311.769V89.584H322.617L324.729 98.416H325.401C326.425 96.624 327.705 94.992 329.241 93.52C330.777 92.048 332.537 90.864 334.521 89.968C336.569 89.072 338.745 88.624 341.049 88.624ZM401.104 115.696C401.104 120.048 400.496 123.92 399.28 127.312C398.128 130.704 396.432 133.584 394.192 135.952C392.016 138.256 389.36 140.016 386.224 141.232C383.088 142.384 379.536 142.96 375.568 142.96C371.92 142.96 368.528 142.384 365.392 141.232C362.32 140.016 359.664 138.256 357.424 135.952C355.184 133.584 353.424 130.704 352.144 127.312C350.928 123.92 350.32 120.048 350.32 115.696C350.32 109.872 351.344 104.976 353.392 101.008C355.44 96.976 358.384 93.904 362.224 91.792C366.064 89.68 370.608 88.624 375.856 88.624C380.784 88.624 385.136 89.68 388.912 91.792C392.688 93.904 395.664 96.976 397.84 101.008C400.016 104.976 401.104 109.872 401.104 115.696ZM364.912 115.696C364.912 119.152 365.264 122.064 365.968 124.432C366.736 126.736 367.92 128.496 369.52 129.712C371.12 130.864 373.2 131.44 375.76 131.44C378.32 131.44 380.368 130.864 381.904 129.712C383.504 128.496 384.656 126.736 385.36 124.432C386.128 122.064 386.512 119.152 386.512 115.696C386.512 112.24 386.128 109.36 385.36 107.056C384.656 104.752 383.504 103.024 381.904 101.872C380.304 100.72 378.224 100.144 375.664 100.144C371.888 100.144 369.136 101.456 367.408 104.08C365.744 106.64 364.912 110.512 364.912 115.696Z" fill="white"/>
<path d="M200.661 47.706C187.894 29.1253 169.727 14.916 148.617 7.00151C127.508 -0.912998 104.477 -2.15049 82.6415 3.45653C60.8058 9.06355 41.2202 21.2443 26.5358 38.35C11.8514 55.4557 2.77739 76.6601 0.542063 99.0931C-1.69326 121.526 3.01805 144.104 14.0382 163.771C25.0584 183.438 41.8553 199.244 62.1552 209.05C82.4551 218.855 105.278 222.187 127.533 218.594C149.789 215 170.404 204.655 186.586 188.959L161.413 163.006C150.55 173.543 136.711 180.488 121.77 182.9C106.83 185.313 91.5088 183.076 77.8812 176.493C64.2537 169.911 52.9777 159.3 45.5797 146.097C38.1817 132.895 35.019 117.738 36.5196 102.678C38.0202 87.6186 44.1117 73.3837 53.9695 61.9005C63.8273 50.4173 76.9753 42.2402 91.6339 38.4761C106.292 34.712 121.754 35.5428 135.924 40.8559C150.095 46.169 162.291 55.7079 170.862 68.1813L200.661 47.706Z" fill="white"/>
</svg>
